<svg width="136" height="59" viewBox="0 0 136 59" fill="none" xmlns="http://www.w3.org/2000/svg">
<path d="M38.05 9.45C38.05 8.95 38 8.58333 37.9 8.35C37.8 8.1 37.6 7.925 37.3 7.825C37 7.725 36.5333 7.675 35.9 7.675C35.85 7.675 35.825 7.625 35.825 7.525C35.825 7.425 35.85 7.375 35.9 7.375L37.075 7.4C37.8417 7.43333 38.5 7.45 39.05 7.45C39.5167 7.45 40.1167 7.43333 40.85 7.4L42.125 7.375C42.175 7.375 42.2 7.425 42.2 7.525C42.2 7.625 42.175 7.675 42.125 7.675C41.5083 7.675 41.05 7.725 40.75 7.825C40.4667 7.90833 40.275 8.06667 40.175 8.3C40.075 8.53333 40.025 8.9 40.025 9.4V20.975C40.025 21.475 40.075 21.85 40.175 22.1C40.275 22.3333 40.4667 22.4917 40.75 22.575C41.05 22.6583 41.5083 22.7 42.125 22.7C42.175 22.7 42.2 22.75 42.2 22.85C42.2 22.95 42.175 23 42.125 23C41.5917 23 41.1667 22.9917 40.85 22.975L39.05 22.95L37.075 22.975C36.7917 22.9917 36.4 23 35.9 23C35.85 23 35.825 22.95 35.825 22.85C35.825 22.75 35.85 22.7 35.9 22.7C36.55 22.7 37.0167 22.6583 37.3 22.575C37.6 22.4917 37.8 22.3333 37.9 22.1C38 21.8667 38.05 21.4917 38.05 20.975V9.45ZM27.875 14.575H38.925V15.15H27.875V14.575ZM26.95 9.4C26.95 8.9 26.9 8.53333 26.8 8.3C26.7 8.06667 26.5083 7.90833 26.225 7.825C25.9417 7.725 25.4917 7.675 24.875 7.675C24.825 7.675 24.8 7.625 24.8 7.525C24.8 7.425 24.825 7.375 24.875 7.375L26.15 7.4C26.85 7.43333 27.4333 7.45 27.9 7.45C28.4167 7.45 29.0583 7.43333 29.825 7.4L31.1 7.375C31.1333 7.375 31.15 7.425 31.15 7.525C31.15 7.625 31.1333 7.675 31.1 7.675C30.4667 7.675 30 7.725 29.7 7.825C29.4 7.925 29.1917 8.1 29.075 8.35C28.975 8.58333 28.925 8.95 28.925 9.45V20.975C28.925 21.475 28.975 21.85 29.075 22.1C29.1917 22.3333 29.3917 22.4917 29.675 22.575C29.975 22.6583 30.45 22.7 31.1 22.7C31.1333 22.7 31.15 22.75 31.15 22.85C31.15 22.95 31.1333 23 31.1 23C30.55 23 30.125 22.9917 29.825 22.975L27.9 22.95L26.125 22.975C25.8083 22.9917 25.375 23 24.825 23C24.7917 23 24.775 22.95 24.775 22.85C24.775 22.75 24.7917 22.7 24.825 22.7C25.4417 22.7 25.8917 22.6583 26.175 22.575C26.475 22.4917 26.675 22.3333 26.775 22.1C26.8917 21.85 26.95 21.475 26.95 20.975V9.4ZM47.9936 15.925H54.7936L54.9686 16.475H47.6936L47.9936 15.925ZM60.6186 22.7C60.7019 22.7 60.7436 22.75 60.7436 22.85C60.7436 22.95 60.7019 23 60.6186 23C60.3019 23 59.8102 22.9833 59.1436 22.95C58.4436 22.9167 57.9436 22.9 57.6436 22.9C57.2602 22.9 56.7852 22.9167 56.2186 22.95C55.6519 22.9833 55.2269 23 54.9436 23C54.8769 23 54.8436 22.95 54.8436 22.85C54.8436 22.75 54.8769 22.7 54.9436 22.7C55.5102 22.7 55.9186 22.65 56.1686 22.55C56.4186 22.4333 56.5436 22.2333 56.5436 21.95C56.5436 21.6667 56.4186 21.275 56.1686 20.775L50.7936 9.6L51.5936 8.4L46.7186 19.7C46.4852 20.2667 46.3686 20.7333 46.3686 21.1C46.3686 21.6333 46.5769 22.0333 46.9936 22.3C47.4102 22.5667 48.0102 22.7 48.7936 22.7C48.8769 22.7 48.9186 22.75 48.9186 22.85C48.9186 22.95 48.8769 23 48.7936 23C48.4936 23 48.0602 22.9833 47.4936 22.95C46.8602 22.9167 46.3102 22.9 45.8436 22.9C45.4102 22.9 44.8936 22.9167 44.2936 22.95C43.7602 22.9833 43.3269 23 42.9936 23C42.9269 23 42.8936 22.95 42.8936 22.85C42.8936 22.75 42.9269 22.7 42.9936 22.7C43.4602 22.7 43.8519 22.6083 44.1686 22.425C44.5019 22.2417 44.8186 21.925 45.1186 21.475C45.4186 21.025 45.7602 20.3583 46.1436 19.475L51.4686 7.2C51.4852 7.15 51.5436 7.125 51.6436 7.125C51.7436 7.10833 51.8019 7.13333 51.8186 7.2L57.8186 19.575C58.4019 20.7917 58.8852 21.6167 59.2686 22.05C59.6686 22.4833 60.1186 22.7 60.6186 22.7ZM63.7199 7.95L64.3699 8V20.15C64.3699 21.0167 64.5283 21.6583 64.8449 22.075C65.1783 22.4917 65.6783 22.7 66.3449 22.7C66.3783 22.7 66.3949 22.75 66.3949 22.85C66.3949 22.95 66.3783 23 66.3449 23C65.9116 23 65.5783 22.9917 65.3449 22.975L64.0699 22.95L62.7199 22.975C62.4699 22.9917 62.1033 23 61.6199 23C61.5866 23 61.5699 22.95 61.5699 22.85C61.5699 22.75 61.5866 22.7 61.6199 22.7C62.3366 22.7 62.8616 22.4917 63.1949 22.075C63.5449 21.6583 63.7199 21.0167 63.7199 20.15V7.95ZM76.3699 23.325C76.3699 23.3583 76.3283 23.3833 76.2449 23.4C76.1783 23.4167 76.1283 23.4083 76.0949 23.375L64.3199 9.425C63.7699 8.775 63.2783 8.325 62.8449 8.075C62.4116 7.80833 61.9783 7.675 61.5449 7.675C61.5116 7.675 61.4949 7.625 61.4949 7.525C61.4949 7.425 61.5116 7.375 61.5449 7.375L62.5199 7.4C62.7199 7.41667 63.0033 7.425 63.3699 7.425L64.6449 7.4C64.8116 7.38333 65.0033 7.375 65.2199 7.375C65.3533 7.375 65.4533 7.40833 65.5199 7.475C65.5866 7.54167 65.6866 7.675 65.8199 7.875L66.4199 8.675L76.1699 20.425L76.3699 23.325ZM76.3699 23.325L75.7449 22.55V10.25C75.7449 9.38333 75.5866 8.74167 75.2699 8.325C74.9533 7.89167 74.4616 7.675 73.7949 7.675C73.7616 7.675 73.7449 7.625 73.7449 7.525C73.7449 7.425 73.7616 7.375 73.7949 7.375L74.7949 7.4C75.2949 7.43333 75.7199 7.45 76.0699 7.45C76.3699 7.45 76.8033 7.43333 77.3699 7.4L78.4199 7.375C78.4533 7.375 78.4699 7.425 78.4699 7.525C78.4699 7.625 78.4533 7.675 78.4199 7.675C77.0533 7.675 76.3699 8.53333 76.3699 10.25V23.325ZM81.9816 7.95L82.6316 8V20.15C82.6316 21.0167 82.79 21.6583 83.1066 22.075C83.44 22.4917 83.94 22.7 84.6066 22.7C84.64 22.7 84.6566 22.75 84.6566 22.85C84.6566 22.95 84.64 23 84.6066 23C84.1733 23 83.84 22.9917 83.6066 22.975L82.3316 22.95L80.9816 22.975C80.7316 22.9917 80.365 23 79.8816 23C79.8483 23 79.8316 22.95 79.8316 22.85C79.8316 22.75 79.8483 22.7 79.8816 22.7C80.5983 22.7 81.1233 22.4917 81.4566 22.075C81.8066 21.6583 81.9816 21.0167 81.9816 20.15V7.95ZM94.6316 23.325C94.6316 23.3583 94.59 23.3833 94.5066 23.4C94.44 23.4167 94.39 23.4083 94.3566 23.375L82.5816 9.425C82.0316 8.775 81.54 8.325 81.1066 8.075C80.6733 7.80833 80.24 7.675 79.8066 7.675C79.7733 7.675 79.7566 7.625 79.7566 7.525C79.7566 7.425 79.7733 7.375 79.8066 7.375L80.7816 7.4C80.9816 7.41667 81.265 7.425 81.6316 7.425L82.9066 7.4C83.0733 7.38333 83.265 7.375 83.4816 7.375C83.615 7.375 83.715 7.40833 83.7816 7.475C83.8483 7.54167 83.9483 7.675 84.0816 7.875L84.6816 8.675L94.4316 20.425L94.6316 23.325ZM94.6316 23.325L94.0066 22.55V10.25C94.0066 9.38333 93.8483 8.74167 93.5316 8.325C93.215 7.89167 92.7233 7.675 92.0566 7.675C92.0233 7.675 92.0066 7.625 92.0066 7.525C92.0066 7.425 92.0233 7.375 92.0566 7.375L93.0566 7.4C93.5566 7.43333 93.9816 7.45 94.3316 7.45C94.6316 7.45 95.065 7.43333 95.6316 7.4L96.6816 7.375C96.715 7.375 96.7316 7.425 96.7316 7.525C96.7316 7.625 96.715 7.675 96.6816 7.675C95.315 7.675 94.6316 8.53333 94.6316 10.25V23.325ZM102.168 15.925H108.968L109.143 16.475H101.868L102.168 15.925ZM114.793 22.7C114.877 22.7 114.918 22.75 114.918 22.85C114.918 22.95 114.877 23 114.793 23C114.477 23 113.985 22.9833 113.318 22.95C112.618 22.9167 112.118 22.9 111.818 22.9C111.435 22.9 110.96 22.9167 110.393 22.95C109.827 22.9833 109.402 23 109.118 23C109.052 23 109.018 22.95 109.018 22.85C109.018 22.75 109.052 22.7 109.118 22.7C109.685 22.7 110.093 22.65 110.343 22.55C110.593 22.4333 110.718 22.2333 110.718 21.95C110.718 21.6667 110.593 21.275 110.343 20.775L104.968 9.6L105.768 8.4L100.893 19.7C100.66 20.2667 100.543 20.7333 100.543 21.1C100.543 21.6333 100.752 22.0333 101.168 22.3C101.585 22.5667 102.185 22.7 102.968 22.7C103.052 22.7 103.093 22.75 103.093 22.85C103.093 22.95 103.052 23 102.968 23C102.668 23 102.235 22.9833 101.668 22.95C101.035 22.9167 100.485 22.9 100.018 22.9C99.585 22.9 99.0684 22.9167 98.4684 22.95C97.935 22.9833 97.5017 23 97.1684 23C97.1017 23 97.0684 22.95 97.0684 22.85C97.0684 22.75 97.1017 22.7 97.1684 22.7C97.635 22.7 98.0267 22.6083 98.3434 22.425C98.6767 22.2417 98.9934 21.925 99.2934 21.475C99.5934 21.025 99.935 20.3583 100.318 19.475L105.643 7.2C105.66 7.15 105.718 7.125 105.818 7.125C105.918 7.10833 105.977 7.13333 105.993 7.2L111.993 19.575C112.577 20.7917 113.06 21.6167 113.443 22.05C113.843 22.4833 114.293 22.7 114.793 22.7Z" fill="white"/>
<path d="M3.54 32.8H7.356L9.12 52.168H9.192L11.064 32.8H15.384L17.256 52.168H17.328L19.092 32.8H22.512L19.956 58H15.024L13.224 41.008H13.152L11.352 58H6.096L3.54 32.8ZM24.5151 32.8H35.3151V36.4H28.4751V43.06H33.9111V46.66H28.4751V54.4H35.3151V58H24.5151V32.8ZM37.5932 32.8H43.5692C45.6092 32.8 47.0972 33.28 48.0332 34.24C48.9692 35.176 49.4372 36.628 49.4372 38.596V39.604C49.4372 40.9 49.2212 41.956 48.7892 42.772C48.3812 43.588 47.7452 44.176 46.8812 44.536V44.608C48.8492 45.28 49.8332 47.032 49.8332 49.864V52.024C49.8332 53.968 49.3172 55.456 48.2852 56.488C47.2772 57.496 45.7892 58 43.8212 58H37.5932V32.8ZM43.1012 43.06C43.8932 43.06 44.4812 42.856 44.8652 42.448C45.2732 42.04 45.4772 41.356 45.4772 40.396V38.992C45.4772 38.08 45.3092 37.42 44.9732 37.012C44.6612 36.604 44.1572 36.4 43.4612 36.4H41.5532V43.06H43.1012ZM43.8212 54.4C44.5172 54.4 45.0332 54.22 45.3692 53.86C45.7052 53.476 45.8732 52.828 45.8732 51.916V49.72C45.8732 48.568 45.6692 47.776 45.2612 47.344C44.8772 46.888 44.2292 46.66 43.3172 46.66H41.5532V54.4H43.8212ZM63.0615 58.36C61.1415 58.36 59.6895 57.82 58.7055 56.74C57.7215 55.636 57.2295 54.064 57.2295 52.024V50.584H60.9735V52.312C60.9735 53.944 61.6575 54.76 63.0255 54.76C63.6975 54.76 64.2015 54.568 64.5375 54.184C64.8975 53.776 65.0775 53.128 65.0775 52.24C65.0775 51.184 64.8375 50.26 64.3575 49.468C63.8775 48.652 62.9895 47.68 61.6935 46.552C60.0615 45.112 58.9215 43.816 58.2735 42.664C57.6255 41.488 57.3015 40.168 57.3015 38.704C57.3015 36.712 57.8055 35.176 58.8135 34.096C59.8215 32.992 61.2855 32.44 63.2055 32.44C65.1015 32.44 66.5295 32.992 67.4895 34.096C68.4735 35.176 68.9655 36.736 68.9655 38.776V39.82H65.2215V38.524C65.2215 37.66 65.0535 37.036 64.7175 36.652C64.3815 36.244 63.8895 36.04 63.2415 36.04C61.9215 36.04 61.2615 36.844 61.2615 38.452C61.2615 39.364 61.5015 40.216 61.9815 41.008C62.4855 41.8 63.3855 42.76 64.6815 43.888C66.3375 45.328 67.4775 46.636 68.1015 47.812C68.7255 48.988 69.0375 50.368 69.0375 51.952C69.0375 54.016 68.5215 55.6 67.4895 56.704C66.4815 57.808 65.0055 58.36 63.0615 58.36ZM74.404 36.4H70.264V32.8H82.504V36.4H78.364V58H74.404V36.4ZM90.1813 58.36C88.2613 58.36 86.7973 57.82 85.7893 56.74C84.7813 55.636 84.2773 54.064 84.2773 52.024V32.8H88.2373V52.312C88.2373 53.176 88.4053 53.8 88.7413 54.184C89.1013 54.568 89.6053 54.76 90.2533 54.76C90.9013 54.76 91.3933 54.568 91.7293 54.184C92.0893 53.8 92.2693 53.176 92.2693 52.312V32.8H96.0853V52.024C96.0853 54.064 95.5813 55.636 94.5733 56.74C93.5653 57.82 92.1013 58.36 90.1813 58.36ZM98.9057 32.8H104.954C106.922 32.8 108.398 33.328 109.382 34.384C110.366 35.44 110.858 36.988 110.858 39.028V51.772C110.858 53.812 110.366 55.36 109.382 56.416C108.398 57.472 106.922 58 104.954 58H98.9057V32.8ZM104.882 54.4C105.53 54.4 106.022 54.208 106.358 53.824C106.718 53.44 106.898 52.816 106.898 51.952V38.848C106.898 37.984 106.718 37.36 106.358 36.976C106.022 36.592 105.53 36.4 104.882 36.4H102.866V54.4H104.882ZM113.531 32.8H117.491V58H113.531V32.8ZM126.18 58.36C124.236 58.36 122.748 57.808 121.716 56.704C120.684 55.6 120.168 54.04 120.168 52.024V38.776C120.168 36.76 120.684 35.2 121.716 34.096C122.748 32.992 124.236 32.44 126.18 32.44C128.124 32.44 129.612 32.992 130.644 34.096C131.676 35.2 132.192 36.76 132.192 38.776V52.024C132.192 54.04 131.676 55.6 130.644 56.704C129.612 57.808 128.124 58.36 126.18 58.36ZM126.18 54.76C127.548 54.76 128.232 53.932 128.232 52.276V38.524C128.232 36.868 127.548 36.04 126.18 36.04C124.812 36.04 124.128 36.868 124.128 38.524V52.276C124.128 53.932 124.812 54.76 126.18 54.76Z" fill="url(#paint0_linear_65_31)"/>
<line y1="28" x2="136" y2="28" stroke="white" stroke-width="2"/>
<defs>
<linearGradient id="paint0_linear_65_31" x1="3" y1="42" x2="136" y2="42" gradientUnits="userSpaceOnUse">
<stop offset="0.427885" stop-color="white"/>
<stop offset="1" stop-color="#666666" stop-opacity="0.2"/>
</linearGradient>
</defs>
</svg>
