<svg version="1.1" id="Layer_1" xmlns="http://www.w3.org/2000/svg" xmlns:xlink="http://www.w3.org/1999/xlink" x="0px" y="0px"
	 width="100%" viewBox="0 0 500 500" enable-background="new 0 0 500 500" xml:space="preserve">
<path fill="#000000" opacity="1.000000" stroke="none" 
	d="
M282.000000,501.000000 
	C188.000015,501.000000 94.500046,501.000000 1.000050,501.000000 
	C1.000033,334.333405 1.000033,167.666794 1.000017,1.000140 
	C167.666565,1.000093 334.333130,1.000093 500.999756,1.000046 
	C500.999847,167.666519 500.999847,334.333038 500.999939,500.999786 
	C428.166656,501.000000 355.333344,501.000000 282.000000,501.000000 
M172.591568,52.735950 
	C174.238297,50.781322 177.827667,49.553989 174.676437,45.370354 
	C172.257370,44.581795 169.844925,43.133724 167.418167,43.109276 
	C148.421173,42.917885 129.421417,42.995422 110.422516,42.998058 
	C85.090683,43.001575 59.758816,43.034313 34.427048,42.997231 
	C30.457932,42.991421 26.864880,44.525879 26.662479,48.368984 
	C26.472670,51.973034 29.944159,53.474289 33.600685,54.133335 
	C38.818874,55.073860 44.035015,56.295338 49.063156,57.965454 
	C60.076183,61.623474 62.987888,65.905678 62.988712,77.489838 
	C62.995468,172.484375 62.995384,267.478912 62.989239,362.473450 
	C62.988491,374.082916 60.098770,378.418518 49.094097,382.007629 
	C43.591770,383.802185 37.685722,384.377563 32.218166,386.251129 
	C29.934689,387.033600 28.316618,389.757965 26.395973,391.599365 
	C28.556810,393.373596 30.695309,395.176575 32.903263,396.890076 
	C33.224285,397.139191 33.877560,396.976807 34.377094,396.976807 
	C78.874435,396.977844 123.371773,396.969055 167.869110,396.987457 
	C171.637970,396.989014 175.194321,395.390350 175.051743,391.814148 
	C174.970505,389.776794 171.380295,387.027283 168.827271,386.110779 
	C162.763641,383.934052 156.291931,382.922455 150.141586,380.951752 
	C142.258194,378.425659 139.056168,372.291779 139.045837,364.409485 
	C138.990143,321.912018 139.051331,279.414398 138.962830,236.917053 
	C138.954025,232.695358 140.373108,230.920334 144.755081,230.958084 
	C161.752808,231.104507 178.752869,231.074387 195.751251,230.973999 
	C199.232895,230.953445 201.198563,232.142960 202.421692,235.549255 
	C209.053574,254.018356 221.742584,268.165558 236.382767,280.432098 
	C257.822021,298.395416 283.243134,308.635956 309.891052,316.204285 
	C331.620422,322.375641 353.513550,328.109589 374.881226,335.370148 
	C391.296967,340.948059 404.160736,351.427948 407.653687,369.816010 
	C410.135681,382.882233 409.720642,395.887146 405.968262,408.816437 
	C400.335724,428.224243 388.011719,440.583832 368.559937,445.993408 
	C354.840179,449.808929 340.936371,449.984039 327.009277,447.944580 
	C304.340118,444.624969 283.939392,435.581482 267.541199,419.694489 
	C247.313553,400.097443 239.388016,375.175171 240.266159,347.219727 
	C240.326248,345.306366 238.780975,343.153320 237.459808,341.539490 
	C237.182938,341.201263 234.053360,342.337738 233.175049,343.501587 
	C229.379578,348.530792 225.785126,353.728455 222.385040,359.036194 
	C211.618271,375.843781 201.011597,392.753967 190.246918,409.562958 
	C187.884918,413.251190 187.857590,416.325043 191.540344,419.035736 
	C201.149582,426.108673 210.244171,434.057129 220.473160,440.077789 
	C248.286819,456.448486 278.919403,463.657898 310.943268,464.876770 
	C322.885040,465.331299 335.018860,465.368591 346.817352,463.768890 
	C361.064117,461.837250 375.345581,458.926453 389.066650,454.678131 
	C404.715363,449.832977 418.653290,441.403259 430.836456,430.007416 
	C441.289886,420.229523 450.250793,409.571594 456.304352,396.570801 
	C463.320953,381.501862 466.137726,365.704010 465.071259,349.088562 
	C464.171265,335.065765 460.874451,321.862396 453.508362,309.794983 
	C448.756317,302.010010 443.961060,294.459686 435.842377,289.358276 
	C432.082458,286.995697 430.132446,281.826782 426.432739,279.279877 
	C417.279114,272.978424 407.996704,266.613678 398.031128,261.793915 
	C376.959625,251.602951 354.287415,246.095871 331.537109,240.925400 
	C313.792206,236.892502 296.649445,230.954315 280.810059,221.803162 
	C271.997070,216.711502 264.889160,209.769821 260.290100,200.560760 
	C251.164520,182.287918 250.806396,163.368347 257.197815,144.347687 
	C260.299866,135.116165 265.202667,126.751358 274.373993,121.859886 
	C283.497223,116.994049 293.256714,114.398758 303.517975,114.059914 
	C324.430634,113.369331 344.027161,117.997375 362.274384,128.563568 
	C384.337158,141.339188 398.027100,160.133179 402.867920,184.968658 
	C404.663513,194.180710 404.131683,203.826950 405.159760,213.220612 
	C405.447327,215.848114 407.510925,218.281235 408.759827,220.803497 
	C410.776642,219.303970 413.412109,218.213455 414.715454,216.242188 
	C429.028351,194.593979 443.119659,172.799347 457.313416,151.072113 
	C459.046509,148.419174 459.041473,146.154541 456.534546,144.052078 
	C450.810120,139.251297 445.339630,134.106491 439.331299,129.693329 
	C422.335754,117.209976 403.149536,109.321442 382.859955,104.064064 
	C378.598022,102.959717 376.734985,101.145073 376.924072,96.584160 
	C377.241425,88.930984 376.990692,81.255196 377.028564,73.589172 
	C377.056976,67.839760 378.898468,62.797211 384.625092,60.739689 
	C391.914948,58.120491 399.562561,56.493458 406.840179,53.845604 
	C409.418365,52.907562 413.143005,50.285580 413.205597,48.331837 
	C413.316467,44.869202 409.881348,43.018173 406.067078,43.019394 
	C361.069794,43.033802 316.072083,42.951900 271.076508,43.228691 
	C268.589417,43.243992 266.120361,46.189636 263.642914,47.771317 
	C265.821381,49.824005 267.786987,52.203991 270.256134,53.809681 
	C271.798859,54.812939 274.133606,54.524689 276.055389,55.033440 
	C280.544647,56.221889 285.103455,57.261185 289.442810,58.875149 
	C295.625183,61.174587 299.956238,65.328651 300.271423,72.410507 
	C300.596436,79.713966 300.632874,87.031441 301.028687,94.330139 
	C301.271210,98.801895 299.160614,100.343529 294.996338,101.070709 
	C271.418182,105.187920 249.418716,112.874718 230.604919,128.512451 
	C205.591568,149.303116 193.926331,175.679810 196.287445,208.025421 
	C196.658173,213.104370 195.228485,214.073532 190.825348,214.035004 
	C175.994034,213.905197 161.160812,214.006577 146.328384,213.982300 
	C139.232803,213.970703 139.016510,213.763412 139.014023,206.655396 
	C138.998947,163.491211 138.990036,120.327019 139.019318,77.162865 
	C139.026901,65.991318 142.085831,61.513931 152.812881,58.017090 
	C159.096466,55.968739 165.636810,54.707970 172.591568,52.735950 
z"/>
<path fill="#2E2E2E" opacity="1.000000" stroke="none" 
	d="
M172.061646,53.092911 
	C165.636810,54.707970 159.096466,55.968739 152.812881,58.017090 
	C142.085831,61.513931 139.026901,65.991318 139.019318,77.162865 
	C138.990036,120.327019 138.998947,163.491211 139.014023,206.655396 
	C139.016510,213.763412 139.232803,213.970703 146.328384,213.982300 
	C161.160812,214.006577 175.994034,213.905197 190.825348,214.035004 
	C195.228485,214.073532 196.658173,213.104370 196.287445,208.025421 
	C193.926331,175.679810 205.591568,149.303116 230.604919,128.512451 
	C249.418716,112.874718 271.418182,105.187920 294.996338,101.070709 
	C299.160614,100.343529 301.271210,98.801895 301.028687,94.330139 
	C300.632874,87.031441 300.596436,79.713966 300.271423,72.410507 
	C299.956238,65.328651 295.625183,61.174587 289.442810,58.875149 
	C285.103455,57.261185 280.544647,56.221889 276.055389,55.033440 
	C274.133606,54.524689 271.798859,54.812939 270.256134,53.809681 
	C267.786987,52.203991 265.821381,49.824005 263.642914,47.771317 
	C266.120361,46.189636 268.589417,43.243992 271.076508,43.228691 
	C316.072083,42.951900 361.069794,43.033802 406.067078,43.019394 
	C409.881348,43.018173 413.316467,44.869202 413.205597,48.331837 
	C413.143005,50.285580 409.418365,52.907562 406.840179,53.845604 
	C399.562561,56.493458 391.914948,58.120491 384.625092,60.739689 
	C378.898468,62.797211 377.056976,67.839760 377.028564,73.589172 
	C376.990692,81.255196 377.241425,88.930984 376.924072,96.584160 
	C376.734985,101.145073 378.598022,102.959717 382.859955,104.064064 
	C403.149536,109.321442 422.335754,117.209976 439.331299,129.693329 
	C445.339630,134.106491 450.810120,139.251297 456.534546,144.052078 
	C459.041473,146.154541 459.046509,148.419174 457.313416,151.072113 
	C443.119659,172.799347 429.028351,194.593979 414.715454,216.242188 
	C413.412109,218.213455 410.776642,219.303970 408.759827,220.803497 
	C407.510925,218.281235 405.447327,215.848114 405.159760,213.220612 
	C404.131683,203.826950 404.663513,194.180710 402.867920,184.968658 
	C398.027100,160.133179 384.337158,141.339188 362.274384,128.563568 
	C344.027161,117.997375 324.430634,113.369331 303.517975,114.059914 
	C293.256714,114.398758 283.497223,116.994049 274.373993,121.859886 
	C265.202667,126.751358 260.299866,135.116165 257.197815,144.347687 
	C250.806396,163.368347 251.164520,182.287918 260.290100,200.560760 
	C264.889160,209.769821 271.997070,216.711502 280.810059,221.803162 
	C296.649445,230.954315 313.792206,236.892502 331.537109,240.925400 
	C354.287415,246.095871 376.959625,251.602951 398.031128,261.793915 
	C407.996704,266.613678 417.279114,272.978424 426.432739,279.279877 
	C430.132446,281.826782 432.082458,286.995697 435.842377,289.358276 
	C443.961060,294.459686 448.756317,302.010010 453.508362,309.794983 
	C460.874451,321.862396 464.171265,335.065765 465.071259,349.088562 
	C466.137726,365.704010 463.320953,381.501862 456.304352,396.570801 
	C450.250793,409.571594 441.289886,420.229523 430.836456,430.007416 
	C418.653290,441.403259 404.715363,449.832977 389.066650,454.678131 
	C375.345581,458.926453 361.064117,461.837250 346.817352,463.768890 
	C335.018860,465.368591 322.885040,465.331299 310.943268,464.876770 
	C278.919403,463.657898 248.286819,456.448486 220.473160,440.077789 
	C210.244171,434.057129 201.149582,426.108673 191.540344,419.035736 
	C187.857590,416.325043 187.884918,413.251190 190.246918,409.562958 
	C201.011597,392.753967 211.618271,375.843781 222.385040,359.036194 
	C225.785126,353.728455 229.379578,348.530792 233.175049,343.501587 
	C234.053360,342.337738 237.182938,341.201263 237.459808,341.539490 
	C238.780975,343.153320 240.326248,345.306366 240.266159,347.219727 
	C239.388016,375.175171 247.313553,400.097443 267.541199,419.694489 
	C283.939392,435.581482 304.340118,444.624969 327.009277,447.944580 
	C340.936371,449.984039 354.840179,449.808929 368.559937,445.993408 
	C388.011719,440.583832 400.335724,428.224243 405.968262,408.816437 
	C409.720642,395.887146 410.135681,382.882233 407.653687,369.816010 
	C404.160736,351.427948 391.296967,340.948059 374.881226,335.370148 
	C353.513550,328.109589 331.620422,322.375641 309.891052,316.204285 
	C283.243134,308.635956 257.822021,298.395416 236.382767,280.432098 
	C221.742584,268.165558 209.053574,254.018356 202.421692,235.549255 
	C201.198563,232.142960 199.232895,230.953445 195.751251,230.973999 
	C178.752869,231.074387 161.752808,231.104507 144.755081,230.958084 
	C140.373108,230.920334 138.954025,232.695358 138.962830,236.917053 
	C139.051331,279.414398 138.990143,321.912018 139.045837,364.409485 
	C139.056168,372.291779 142.258194,378.425659 150.141586,380.951752 
	C156.291931,382.922455 162.763641,383.934052 168.827271,386.110779 
	C171.380295,387.027283 174.970505,389.776794 175.051743,391.814148 
	C175.194321,395.390350 171.637970,396.989014 167.869110,396.987457 
	C123.371773,396.969055 78.874435,396.977844 34.377094,396.976807 
	C33.877560,396.976807 33.224285,397.139191 32.903263,396.890076 
	C30.695309,395.176575 28.556810,393.373596 26.395985,391.599365 
	C28.316618,389.757965 29.934689,387.033600 32.218166,386.251129 
	C37.685722,384.377563 43.591770,383.802185 49.094097,382.007629 
	C60.098770,378.418518 62.988491,374.082916 62.989239,362.473450 
	C62.995384,267.478912 62.995468,172.484375 62.988712,77.489838 
	C62.987888,65.905678 60.076183,61.623474 49.063156,57.965454 
	C44.035015,56.295338 38.818874,55.073860 33.600685,54.133335 
	C29.944159,53.474289 26.472670,51.973034 26.662479,48.368984 
	C26.864880,44.525879 30.457932,42.991421 34.427048,42.997231 
	C59.758816,43.034313 85.090683,43.001575 110.422516,42.998058 
	C129.421417,42.995422 148.421173,42.917885 167.418167,43.109276 
	C169.844925,43.133724 172.257370,44.581795 174.558151,45.754784 
	C170.249084,47.294956 170.000336,49.798908 172.061646,53.092911 
z"/>
<path fill="#2E2E2E" opacity="1.000000" stroke="none" 
	d="
M172.326599,52.914433 
	C170.000336,49.798908 170.249084,47.294956 174.782104,46.054985 
	C177.827667,49.553989 174.238297,50.781322 172.326599,52.914433 
z"/>
</svg>