<svg width="110" height="54" viewBox="0 0 110 54" fill="none" xmlns="http://www.w3.org/2000/svg">
<path d="M12.58 5.96L13.08 6L12.88 15.72C12.8667 16.4133 12.9933 16.9267 13.26 17.26C13.5267 17.5933 13.96 17.76 14.56 17.76C14.6 17.76 14.62 17.8 14.62 17.88C14.62 17.96 14.6 18 14.56 18C14.2 18 13.92 17.9933 13.72 17.98L12.62 17.96L11.52 17.98C11.3333 17.9933 11.06 18 10.7 18C10.6733 18 10.66 17.96 10.66 17.88C10.66 17.8 10.6733 17.76 10.7 17.76C11.8067 17.76 12.3667 17.08 12.38 15.72L12.58 5.96ZM26.38 17.76C26.4067 17.76 26.42 17.8 26.42 17.88C26.42 17.96 26.4067 18 26.38 18C25.94 18 25.5933 17.9933 25.34 17.98L23.94 17.96L22.6 17.98C22.3733 17.9933 22.06 18 21.66 18C21.6333 18 21.62 17.96 21.62 17.88C21.62 17.8 21.6333 17.76 21.66 17.76C22.1133 17.76 22.4467 17.7267 22.66 17.66C22.8733 17.58 23.0133 17.4467 23.08 17.26C23.1467 17.0733 23.1667 16.78 23.14 16.38L22.74 6.96L23.52 5.84L18.34 17.86C18.3133 17.9133 18.26 17.94 18.18 17.94C18.1 17.94 18.0467 17.9133 18.02 17.86L12.8 7.16C12.56 6.66667 12.28 6.30667 11.96 6.08C11.64 5.85333 11.2667 5.74 10.84 5.74C10.8133 5.74 10.8 5.7 10.8 5.62C10.8 5.54 10.8133 5.5 10.84 5.5L11.64 5.52C11.8 5.53333 12.0067 5.54 12.26 5.54C12.5533 5.54 12.7933 5.53333 12.98 5.52C13.1667 5.50667 13.3133 5.5 13.42 5.5C13.5933 5.5 13.7333 5.56 13.84 5.68C13.9467 5.8 14.1133 6.08667 14.34 6.54L18.88 15.76L18.14 17.04L22.96 6C23.0933 5.66667 23.2933 5.5 23.56 5.5C23.64 5.5 23.7467 5.50667 23.88 5.52C24.0133 5.53333 24.1867 5.54 24.4 5.54L25.42 5.52C25.58 5.50667 25.8133 5.5 26.12 5.5C26.1467 5.5 26.16 5.54 26.16 5.62C26.16 5.7 26.1467 5.74 26.12 5.74C25.4533 5.74 24.98 5.84667 24.7 6.06C24.42 6.27333 24.2867 6.64667 24.3 7.18L24.72 16.38C24.7467 16.7933 24.8 17.0933 24.88 17.28C24.96 17.4667 25.1067 17.5933 25.32 17.66C25.5467 17.7267 25.9 17.76 26.38 17.76ZM30.9959 16.38C30.9959 16.7933 31.0293 17.0933 31.0959 17.28C31.1759 17.4667 31.3226 17.5933 31.5359 17.66C31.7626 17.7267 32.1226 17.76 32.6159 17.76C32.6426 17.76 32.6559 17.8 32.6559 17.88C32.6559 17.96 32.6426 18 32.6159 18C32.1893 18 31.8559 17.9933 31.6159 17.98L30.1759 17.96L28.7759 17.98C28.5226 17.9933 28.1759 18 27.7359 18C27.7093 18 27.6959 17.96 27.6959 17.88C27.6959 17.8 27.7093 17.76 27.7359 17.76C28.2159 17.76 28.5693 17.7267 28.7959 17.66C29.0226 17.5933 29.1759 17.4667 29.2559 17.28C29.3493 17.08 29.3959 16.78 29.3959 16.38V7.12C29.3959 6.72 29.3493 6.42667 29.2559 6.24C29.1759 6.05333 29.0226 5.92667 28.7959 5.86C28.5693 5.78 28.2159 5.74 27.7359 5.74C27.7093 5.74 27.6959 5.7 27.6959 5.62C27.6959 5.54 27.7093 5.5 27.7359 5.5L28.7759 5.52C29.3626 5.54667 29.8293 5.56 30.1759 5.56C30.5626 5.56 31.0493 5.54667 31.6359 5.52L32.6159 5.5C32.6426 5.5 32.6559 5.54 32.6559 5.62C32.6559 5.7 32.6426 5.74 32.6159 5.74C32.1359 5.74 31.7826 5.78 31.5559 5.86C31.3426 5.94 31.1959 6.08 31.1159 6.28C31.0359 6.46667 30.9959 6.76 30.9959 7.16V16.38ZM41.8552 5.28C42.6285 5.28 43.3085 5.34 43.8952 5.46C44.4952 5.56667 45.0552 5.74667 45.5752 6C45.6685 6.04 45.7285 6.08667 45.7552 6.14C45.7818 6.18 45.8018 6.28 45.8152 6.44L46.0752 8.94C46.0752 8.98 46.0352 9.00667 45.9552 9.02C45.8885 9.03333 45.8485 9.01333 45.8352 8.96C45.1552 6.73333 43.7818 5.62 41.7152 5.62C40.6618 5.62 39.7285 5.86667 38.9152 6.36C38.1018 6.85333 37.4685 7.55333 37.0152 8.46C36.5752 9.36667 36.3552 10.4267 36.3552 11.64C36.3552 12.8267 36.5952 13.9 37.0752 14.86C37.5685 15.8067 38.2285 16.5533 39.0552 17.1C39.8952 17.6333 40.8152 17.9 41.8152 17.9C42.8552 17.9 43.7085 17.64 44.3752 17.12C45.0418 16.5867 45.5818 15.7667 45.9952 14.66C46.0085 14.6333 46.0418 14.62 46.0952 14.62C46.1218 14.62 46.1485 14.6333 46.1752 14.66C46.2152 14.6733 46.2352 14.6867 46.2352 14.7L46.0152 16.98C46.0018 17.14 45.9818 17.24 45.9552 17.28C45.9285 17.32 45.8618 17.3667 45.7552 17.42C45.0885 17.7267 44.4485 17.94 43.8352 18.06C43.2218 18.1933 42.5485 18.26 41.8152 18.26C40.4018 18.26 39.1418 17.9867 38.0352 17.44C36.9285 16.88 36.0618 16.1067 35.4352 15.12C34.8218 14.1333 34.5152 13 34.5152 11.72C34.5152 10.4667 34.8285 9.35333 35.4552 8.38C36.0952 7.39333 36.9752 6.63333 38.0952 6.1C39.2152 5.55333 40.4685 5.28 41.8552 5.28ZM58.447 7.16C58.447 6.76 58.407 6.46667 58.327 6.28C58.247 6.08 58.087 5.94 57.847 5.86C57.607 5.78 57.2337 5.74 56.727 5.74C56.687 5.74 56.667 5.7 56.667 5.62C56.667 5.54 56.687 5.5 56.727 5.5L57.667 5.52C58.2804 5.54667 58.807 5.56 59.247 5.56C59.6204 5.56 60.1004 5.54667 60.687 5.52L61.707 5.5C61.747 5.5 61.767 5.54 61.767 5.62C61.767 5.7 61.747 5.74 61.707 5.74C61.2137 5.74 60.847 5.78 60.607 5.86C60.3804 5.92667 60.227 6.05333 60.147 6.24C60.067 6.42667 60.027 6.72 60.027 7.12V16.38C60.027 16.78 60.067 17.08 60.147 17.28C60.227 17.4667 60.3804 17.5933 60.607 17.66C60.847 17.7267 61.2137 17.76 61.707 17.76C61.747 17.76 61.767 17.8 61.767 17.88C61.767 17.96 61.747 18 61.707 18C61.2804 18 60.9404 17.9933 60.687 17.98L59.247 17.96L57.667 17.98C57.4404 17.9933 57.127 18 56.727 18C56.687 18 56.667 17.96 56.667 17.88C56.667 17.8 56.687 17.76 56.727 17.76C57.247 17.76 57.6204 17.7267 57.847 17.66C58.087 17.5933 58.247 17.4667 58.327 17.28C58.407 17.0933 58.447 16.7933 58.447 16.38V7.16ZM50.307 11.26H59.147V11.72H50.307V11.26ZM49.567 7.12C49.567 6.72 49.527 6.42667 49.447 6.24C49.367 6.05333 49.2137 5.92667 48.987 5.86C48.7604 5.78 48.4004 5.74 47.907 5.74C47.867 5.74 47.847 5.7 47.847 5.62C47.847 5.54 47.867 5.5 47.907 5.5L48.927 5.52C49.487 5.54667 49.9537 5.56 50.327 5.56C50.7404 5.56 51.2537 5.54667 51.867 5.52L52.887 5.5C52.9137 5.5 52.927 5.54 52.927 5.62C52.927 5.7 52.9137 5.74 52.887 5.74C52.3804 5.74 52.007 5.78 51.767 5.86C51.527 5.94 51.3604 6.08 51.267 6.28C51.187 6.46667 51.147 6.76 51.147 7.16V16.38C51.147 16.78 51.187 17.08 51.267 17.28C51.3604 17.4667 51.5204 17.5933 51.747 17.66C51.987 17.7267 52.367 17.76 52.887 17.76C52.9137 17.76 52.927 17.8 52.927 17.88C52.927 17.96 52.9137 18 52.887 18C52.447 18 52.107 17.9933 51.867 17.98L50.327 17.96L48.907 17.98C48.6537 17.9933 48.307 18 47.867 18C47.8404 18 47.827 17.96 47.827 17.88C47.827 17.8 47.8404 17.76 47.867 17.76C48.3604 17.76 48.7204 17.7267 48.947 17.66C49.187 17.5933 49.347 17.4667 49.427 17.28C49.5204 17.08 49.567 16.78 49.567 16.38V7.12ZM66.4019 12.34H71.8419L71.9819 12.78H66.1619L66.4019 12.34ZM76.5019 17.76C76.5685 17.76 76.6019 17.8 76.6019 17.88C76.6019 17.96 76.5685 18 76.5019 18C76.2485 18 75.8552 17.9867 75.3219 17.96C74.7619 17.9333 74.3619 17.92 74.1219 17.92C73.8152 17.92 73.4352 17.9333 72.9819 17.96C72.5285 17.9867 72.1885 18 71.9619 18C71.9085 18 71.8819 17.96 71.8819 17.88C71.8819 17.8 71.9085 17.76 71.9619 17.76C72.4152 17.76 72.7419 17.72 72.9419 17.64C73.1419 17.5467 73.2419 17.3867 73.2419 17.16C73.2419 16.9333 73.1419 16.62 72.9419 16.22L68.6419 7.28L69.2819 6.32L65.3819 15.36C65.1952 15.8133 65.1019 16.1867 65.1019 16.48C65.1019 16.9067 65.2685 17.2267 65.6019 17.44C65.9352 17.6533 66.4152 17.76 67.0419 17.76C67.1085 17.76 67.1419 17.8 67.1419 17.88C67.1419 17.96 67.1085 18 67.0419 18C66.8019 18 66.4552 17.9867 66.0019 17.96C65.4952 17.9333 65.0552 17.92 64.6819 17.92C64.3352 17.92 63.9219 17.9333 63.4419 17.96C63.0152 17.9867 62.6685 18 62.4019 18C62.3485 18 62.3219 17.96 62.3219 17.88C62.3219 17.8 62.3485 17.76 62.4019 17.76C62.7752 17.76 63.0885 17.6867 63.3419 17.54C63.6085 17.3933 63.8619 17.14 64.1019 16.78C64.3419 16.42 64.6152 15.8867 64.9219 15.18L69.1819 5.36C69.1952 5.32 69.2419 5.3 69.3219 5.3C69.4019 5.28667 69.4485 5.30667 69.4619 5.36L74.2619 15.26C74.7285 16.2333 75.1152 16.8933 75.4219 17.24C75.7419 17.5867 76.1019 17.76 76.5019 17.76ZM77.403 18C77.363 18 77.343 17.96 77.343 17.88C77.343 17.8 77.363 17.76 77.403 17.76C77.883 17.76 78.2296 17.7267 78.443 17.66C78.6696 17.5933 78.823 17.4667 78.903 17.28C78.983 17.08 79.023 16.78 79.023 16.38V7.12C79.023 6.72 78.983 6.42667 78.903 6.24C78.823 6.05333 78.6696 5.92667 78.443 5.86C78.2296 5.78 77.883 5.74 77.403 5.74C77.363 5.74 77.343 5.7 77.343 5.62C77.343 5.54 77.363 5.5 77.403 5.5H85.563C85.6963 5.5 85.763 5.56 85.763 5.68L85.803 8.2C85.803 8.24 85.763 8.26667 85.683 8.28C85.6163 8.28 85.5763 8.26 85.563 8.22C85.4696 7.48667 85.2096 6.92667 84.783 6.54C84.3563 6.15333 83.7963 5.96 83.103 5.96H82.083C81.4963 5.96 81.103 6.04667 80.903 6.22C80.703 6.39333 80.603 6.72 80.603 7.2V16.3C80.603 16.78 80.6896 17.1067 80.863 17.28C81.0496 17.4533 81.4163 17.54 81.963 17.54H83.283C84.0296 17.54 84.6496 17.32 85.143 16.88C85.6496 16.4267 85.9963 15.7867 86.183 14.96C86.183 14.9333 86.2096 14.92 86.263 14.92C86.303 14.92 86.3363 14.9333 86.363 14.96C86.403 14.9733 86.423 14.9867 86.423 15C86.2896 15.96 86.223 16.86 86.223 17.7C86.223 17.8067 86.203 17.8867 86.163 17.94C86.123 17.98 86.043 18 85.923 18H77.403ZM84.803 13.4C84.803 12.8267 84.6363 12.4067 84.303 12.14C83.983 11.86 83.4696 11.72 82.763 11.72H79.843V11.26H82.803C83.483 11.26 83.983 11.1467 84.303 10.92C84.623 10.68 84.783 10.3133 84.783 9.82C84.783 9.79333 84.8163 9.78 84.883 9.78C84.963 9.78 85.003 9.79333 85.003 9.82L84.983 11.5L85.003 12.4C85.0296 12.8267 85.043 13.16 85.043 13.4C85.043 13.4267 85.003 13.44 84.923 13.44C84.843 13.44 84.803 13.4267 84.803 13.4ZM91.2628 16.3C91.2628 16.6733 91.2961 16.9467 91.3628 17.12C91.4428 17.28 91.5828 17.3933 91.7828 17.46C91.9828 17.5133 92.2961 17.54 92.7228 17.54H94.4228C95.2628 17.54 95.9561 17.2933 96.5028 16.8C97.0628 16.2933 97.4361 15.6133 97.6228 14.76C97.6228 14.72 97.6561 14.7067 97.7228 14.72C97.8028 14.72 97.8428 14.74 97.8428 14.78C97.7228 15.9533 97.6628 16.9267 97.6628 17.7C97.6628 17.8067 97.6361 17.8867 97.5828 17.94C97.5428 17.98 97.4695 18 97.3628 18H88.0428C88.0161 18 88.0028 17.96 88.0028 17.88C88.0028 17.8 88.0161 17.76 88.0428 17.76C88.5228 17.76 88.8761 17.7267 89.1028 17.66C89.3295 17.5933 89.4828 17.4667 89.5628 17.28C89.6428 17.08 89.6828 16.78 89.6828 16.38V7.12C89.6828 6.72 89.6428 6.42667 89.5628 6.24C89.4828 6.05333 89.3295 5.92667 89.1028 5.86C88.8761 5.78 88.5228 5.74 88.0428 5.74C88.0161 5.74 88.0028 5.7 88.0028 5.62C88.0028 5.54 88.0161 5.5 88.0428 5.5L89.0428 5.52C89.6295 5.54667 90.1028 5.56 90.4628 5.56C90.8228 5.56 91.2961 5.54667 91.8828 5.52L92.8828 5.5C92.9095 5.5 92.9228 5.54 92.9228 5.62C92.9228 5.7 92.9095 5.74 92.8828 5.74C92.4028 5.74 92.0495 5.78 91.8228 5.86C91.6095 5.92667 91.4628 6.06 91.3828 6.26C91.3028 6.44667 91.2628 6.74 91.2628 7.14V16.3Z" fill="black"/>
<path d="M2.476 27.8H8.524C10.492 27.8 11.968 28.328 12.952 29.384C13.936 30.44 14.428 31.988 14.428 34.028V46.772C14.428 48.812 13.936 50.36 12.952 51.416C11.968 52.472 10.492 53 8.524 53H2.476V27.8ZM8.452 49.4C9.1 49.4 9.592 49.208 9.928 48.824C10.288 48.44 10.468 47.816 10.468 46.952V33.848C10.468 32.984 10.288 32.36 9.928 31.976C9.592 31.592 9.1 31.4 8.452 31.4H6.436V49.4H8.452ZM17.101 27.8H27.901V31.4H21.061V38.06H26.497V41.66H21.061V49.4H27.901V53H17.101V27.8ZM29.1351 27.8H33.1311L35.7231 47.348H35.7951L38.3871 27.8H42.0231L38.2071 53H32.9511L29.1351 27.8ZM43.9252 27.8H54.7252V31.4H47.8852V38.06H53.3212V41.66H47.8852V49.4H54.7252V53H43.9252V27.8ZM57.0033 27.8H60.9633V49.4H67.4793V53H57.0033V27.8ZM74.9617 53.36C73.0177 53.36 71.5297 52.808 70.4977 51.704C69.4657 50.6 68.9497 49.04 68.9497 47.024V33.776C68.9497 31.76 69.4657 30.2 70.4977 29.096C71.5297 27.992 73.0177 27.44 74.9617 27.44C76.9057 27.44 78.3937 27.992 79.4257 29.096C80.4577 30.2 80.9737 31.76 80.9737 33.776V47.024C80.9737 49.04 80.4577 50.6 79.4257 51.704C78.3937 52.808 76.9057 53.36 74.9617 53.36ZM74.9617 49.76C76.3297 49.76 77.0137 48.932 77.0137 47.276V33.524C77.0137 31.868 76.3297 31.04 74.9617 31.04C73.5937 31.04 72.9097 31.868 72.9097 33.524V47.276C72.9097 48.932 73.5937 49.76 74.9617 49.76ZM83.6518 27.8H89.4838C91.4518 27.8 92.9278 28.328 93.9118 29.384C94.8958 30.44 95.3878 31.988 95.3878 34.028V36.512C95.3878 38.552 94.8958 40.1 93.9118 41.156C92.9278 42.212 91.4518 42.74 89.4838 42.74H87.6118V53H83.6518V27.8ZM89.4838 39.14C90.1318 39.14 90.6118 38.96 90.9238 38.6C91.2598 38.24 91.4278 37.628 91.4278 36.764V33.776C91.4278 32.912 91.2598 32.3 90.9238 31.94C90.6118 31.58 90.1318 31.4 89.4838 31.4H87.6118V39.14H89.4838ZM102.827 53.36C100.907 53.36 99.4551 52.82 98.4711 51.74C97.4871 50.636 96.9951 49.064 96.9951 47.024V45.584H100.739V47.312C100.739 48.944 101.423 49.76 102.791 49.76C103.463 49.76 103.967 49.568 104.303 49.184C104.663 48.776 104.843 48.128 104.843 47.24C104.843 46.184 104.603 45.26 104.123 44.468C103.643 43.652 102.755 42.68 101.459 41.552C99.8271 40.112 98.6871 38.816 98.0391 37.664C97.3911 36.488 97.0671 35.168 97.0671 33.704C97.0671 31.712 97.5711 30.176 98.5791 29.096C99.5871 27.992 101.051 27.44 102.971 27.44C104.867 27.44 106.295 27.992 107.255 29.096C108.239 30.176 108.731 31.736 108.731 33.776V34.82H104.987V33.524C104.987 32.66 104.819 32.036 104.483 31.652C104.147 31.244 103.655 31.04 103.007 31.04C101.687 31.04 101.027 31.844 101.027 33.452C101.027 34.364 101.267 35.216 101.747 36.008C102.251 36.8 103.151 37.76 104.447 38.888C106.103 40.328 107.243 41.636 107.867 42.812C108.491 43.988 108.803 45.368 108.803 46.952C108.803 49.016 108.287 50.6 107.255 51.704C106.247 52.808 104.771 53.36 102.827 53.36Z" fill="black"/>
<line x1="0.00364976" y1="23" x2="110.003" y2="23.4015" stroke="black" stroke-width="2"/>
</svg>
