<svg width="439" height="423" viewBox="0 0 439 423" fill="none" xmlns="http://www.w3.org/2000/svg">
<path d="M145.666 10.1126C139.241 11.7276 132.7 12.9884 126.417 15.0368C115.69 18.5336 112.631 23.011 112.623 34.1825C112.594 77.3467 112.603 120.511 112.618 163.675C112.621 170.783 112.837 170.99 119.932 171.002C134.765 171.026 149.598 170.925 164.429 171.055C168.833 171.093 170.262 170.124 169.891 165.045C167.53 132.699 179.196 106.323 204.209 85.5321C223.023 69.8944 245.022 62.2076 268.6 58.0904C272.765 57.3632 274.875 55.8216 274.633 51.3498C274.237 44.0511 274.2 36.7336 273.875 29.4302C273.56 22.3483 269.229 18.1943 263.047 15.8948C258.707 14.2809 254.149 13.2416 249.659 12.0531C247.738 11.5444 245.403 11.8326 243.86 10.8294C241.391 9.22366 239.425 6.84368 237.247 4.79099C239.724 3.20931 242.193 0.263665 244.681 0.248364C289.676 -0.0284268 334.674 0.053475 379.671 0.039067C383.485 0.037846 386.92 1.88887 386.81 5.35151C386.747 7.30525 383.022 9.92724 380.444 10.8653C373.167 13.5131 365.519 15.1402 358.229 17.7594C352.502 19.8169 350.661 24.8594 350.633 30.6088C350.595 38.2749 350.845 45.9507 350.528 53.6038C350.339 58.1647 352.202 59.9794 356.464 61.0837C376.754 66.3411 395.94 74.2297 412.935 86.713C418.944 91.1262 424.414 96.271 430.139 101.072C432.645 103.174 432.651 105.439 430.917 108.092C416.724 129.819 402.632 151.614 388.319 173.262C387.016 175.233 384.381 176.324 382.364 177.823C381.115 175.301 379.051 172.868 378.764 170.24C377.736 160.847 378.268 151.2 376.472 141.988C371.631 117.153 357.941 98.3589 335.878 85.5832C317.631 75.0171 298.035 70.389 277.122 71.0796C266.861 71.4184 257.101 74.0137 247.978 78.8796C238.807 83.771 233.904 92.1358 230.802 101.367C224.41 120.388 224.769 139.308 233.894 157.58C238.493 166.789 245.601 173.731 254.414 178.823C270.253 187.974 287.396 193.912 305.141 197.945C327.891 203.116 350.564 208.623 371.635 218.814C381.601 223.633 390.883 229.998 400.037 236.3C403.736 238.846 405.686 244.015 409.446 246.378C417.565 251.479 422.36 259.03 427.112 266.815C434.478 278.882 437.775 292.085 438.675 306.108C439.742 322.724 436.925 338.522 429.908 353.59C423.855 366.591 414.894 377.249 404.44 387.027C392.257 398.423 378.319 406.853 362.671 411.698C348.95 415.946 334.668 418.857 320.421 420.789C308.623 422.388 296.489 422.351 284.547 421.896C252.523 420.678 221.891 413.468 194.077 397.097C183.848 391.077 174.754 383.128 165.144 376.055C161.462 373.345 161.489 370.271 163.851 366.583C174.616 349.774 185.222 332.863 195.989 316.056C199.389 310.748 202.984 305.55 206.779 300.521C207.657 299.357 210.787 298.221 211.064 298.559C212.385 300.173 213.93 302.326 213.87 304.239C212.992 332.195 220.918 357.117 241.145 376.714C257.543 392.601 277.944 401.645 300.613 404.964C314.54 407.004 328.444 406.829 342.164 403.013C361.616 397.604 373.94 385.244 379.572 365.836C383.325 352.907 383.74 339.902 381.258 326.836C377.765 308.448 364.901 297.968 348.485 292.39C327.118 285.129 305.224 279.395 283.495 273.224C256.847 265.656 231.426 255.415 209.987 237.452C195.347 225.185 182.658 211.038 176.026 192.569C174.803 189.163 172.837 187.973 169.355 187.994C152.357 188.094 135.357 188.124 118.359 187.978C113.977 187.94 112.558 189.715 112.567 193.937C112.655 236.434 112.594 278.932 112.65 321.429C112.66 329.311 115.862 335.445 123.746 337.971C129.896 339.942 136.368 340.954 142.431 343.13C144.984 344.047 148.575 346.796 148.656 348.834C148.798 352.41 145.242 354.009 141.473 354.007C96.9758 353.989 52.4785 353.998 7.98111 353.996C7.48158 353.996 6.8283 354.159 6.50728 353.91C4.29932 352.196 2.16083 350.393 0 348.619C1.92063 346.778 3.5387 344.053 5.82218 343.271C11.2897 341.397 17.1958 340.822 22.6981 339.027C33.7028 335.438 36.5925 331.103 36.5933 319.493C36.5994 224.499 36.5995 129.504 36.5927 34.5095C36.5919 22.9254 33.6802 18.6431 22.6672 14.9851C17.639 13.315 12.4229 12.0935 7.2047 11.153C3.54817 10.494 0.0766858 8.99271 0.266495 5.38866C0.468896 1.54555 4.06195 0.0110936 8.03106 0.0169036C33.3628 0.0539856 58.6947 0.0212484 84.0265 0.0177314C103.025 0.0150954 122.025 -0.0624421 141.022 0.128949C143.449 0.153397 145.861 1.60147 148.162 2.77446C143.853 4.31463 143.604 6.81858 145.666 10.1126Z" fill="#2E2E2E"/>
</svg>
